# xmcd
#
# Track frame offsets:
#  150
#  5933
#  25474
#  46426
#  73048
#  95635
#  116046
#  135731
#  162296
#  181264
#  201226
#  219090
#  237184
#  256960
#  277360
#  296860
#  310034
#  338116
#
# Disc length: 4766 seconds
#
# Revision: 0
# Processed by: cddbd v1.5.2PL0 Copyright (c) Steve Scherf et al.
# Submitted via: AltoMP3_Maker 3.0
#
DISCID=1b129c12
DTITLE=T.N.T [TAO NEO TEKNICAS] - MATERIAL FLAMABLE
DYEAR=1900
DGENRE=
TTITLE0=INTRO
TTITLE1=M.B.A. [LOS MÀS BUSCADOS DE AMÈRICA]
TTITLE2=BOTA LOS HOMBROS
TTITLE3=CICLO REM
TTITLE4=CONTIGO ES DIFERENTE [CON SANDRA]
TTITLE5=EJÈRCITO
TTITLE6=BIBRACIONEX
TTITLE7=LA NATURALEZA DEL DOLOR
TTITLE8=TÌMIDA
TTITLE9=TU NOVIA ES [CON NUBE]
TTITLE10=VI TUS OJOS
TTITLE11=A SANGRE FRÌA
TTITLE12=POR SUPUESTO QUE SI
TTITLE13=BOTA LOS HOMBROS REMIXXX [CON DON ONE]
TTITLE14=BIBRACIONEX [CON 'DITOW]
TTITLE15=OUTRO
TTITLE16=BOTA LOS HOMBROS REMIXXX [SCREW AND CHOPPED]
TTITLE17=EN MI MENTE HAY... (WORDO)
EXTD=
EXTT0=
EXTT1=
EXTT2=
EXTT3=
EXTT4=
EXTT5=
EXTT6=
EXTT7=
EXTT8=
EXTT9=
EXTT10=
EXTT11=
EXTT12=
EXTT13=
EXTT14=
EXTT15=
EXTT16=
EXTT17=
PLAYORDER=
